<?xml version="1.0" encoding="UTF-8" standalone="no"?>
<svg
   xml:space="preserve"
   width="202.2738"
   height="141.55469"
   version="1.1"
   id="svg2"
   sodipodi:docname="youtube.svg"
   inkscape:version="1.2.2 (732a01da63, 2022-12-09)"
   xmlns:inkscape="http://www.inkscape.org/namespaces/inkscape"
   xmlns:sodipodi="http://sodipodi.sourceforge.net/DTD/sodipodi-0.dtd"
   xmlns="http://www.w3.org/2000/svg"
   xmlns:svg="http://www.w3.org/2000/svg"><defs
   id="defs2">
    
    
  </defs><sodipodi:namedview
   id="namedview2"
   pagecolor="#ffffff"
   bordercolor="#000000"
   borderopacity="0.25"
   inkscape:showpageshadow="2"
   inkscape:pageopacity="1"
   inkscape:pagecheckerboard="0"
   inkscape:deskcolor="#d1d1d1"
   inkscape:zoom="2.7366667"
   inkscape:cx="101.21803"
   inkscape:cy="70.889159"
   inkscape:window-width="3840"
   inkscape:window-height="2054"
   inkscape:window-x="1609"
   inkscape:window-y="-11"
   inkscape:window-maximized="1"
   inkscape:current-layer="svg2"
   showgrid="false" />
  <path
   fill="#ff0000"
   d="m 101.07422,0 c 0,0 -63.21885,6e-5 -79.085939,4.123042 C 13.492494,6.496845 6.496873,13.492545 4.123047,22.11329 9.4e-5,37.98038 0,70.83985 0,70.83985 c 0,0 9.4e-5,32.98419 4.123047,48.60156 2.373826,8.62062 9.244506,15.49137 17.865234,17.86524 15.992031,4.24788 79.085939,4.24803 79.085939,4.24803 0,0 63.34418,-5e-5 79.21095,-4.12304 8.62079,-2.37381 15.49133,-9.11965 17.74023,-17.86524 4.24793,-15.74232 4.24805,-48.60156 4.24805,-48.60156 0,0 0.12484,-32.98446 -4.24805,-48.85155 C 195.7765,13.492545 188.90596,6.621952 180.28517,4.373048 164.4184,1.95e-4 101.07422,0 101.07422,0 Z M 80.958987,40.48046 133.5586,70.83985 80.958987,101.07422 Z"
   id="path2"
   style="fill:#000000;fill-opacity:1;stroke-width:0.75"
   sodipodi:nodetypes="ccccccccccccccccc" />
</svg>
